# xmcd
#
# Track frame offsets:
# 150
# 22848
# 51063
# 80841
# 106852
# 127398
#
# Disc length: 2065 seconds
#
#
# Revision: 0
# Processed by: cddbd v1.5.2PL0 Copyright (c) Steve Scherf et al.
# Submitted via: FreeRIP 2.943 
#
DISCID=49080f06
DTITLE=same-sex dictator - s-t [ep]
DYEAR=2007
DGENRE=Duet
TTITLE0=descend for thy mystic cobweb atop thee psychedelic monestary
TTITLE1=embryo metropolis
TTITLE2=russian vodka
TTITLE3=cybernetic breakdown in the negotiations
TTITLE4=tim roth in the move ''rob roy''
TTITLE5=we all miss the cold war
EXTD=yy
EXTT0=
EXTT1=
EXTT2=
EXTT3=
EXTT4=
EXTT5=
PLAYORDER=
